<?xml version="1.0" encoding="iso-8859-1"?>
<!-- Generator: Adobe Illustrator 19.0.0, SVG Export Plug-In . SVG Version: 6.00 Build 0)  -->
<svg version="1.1" id="Capa_1" xmlns="http://www.w3.org/2000/svg" xmlns:xlink="http://www.w3.org/1999/xlink" x="0px" y="0px"
	 viewBox="0 0 512 512" style="enable-background:new 0 0 512 512;" xml:space="preserve">
<g>
	<g>
		<path d="M508.35,246.278c-1.15-1.314-28.669-32.568-73.245-64.103c-26.286-18.597-53.105-33.44-79.708-44.115
			c-33.674-13.514-67.116-20.366-99.399-20.366c-32.282,0-65.724,6.852-99.398,20.366c-26.603,10.675-53.421,25.517-79.708,44.115
			C32.319,213.71,4.799,244.965,3.65,246.278c-4.867,5.567-4.867,13.875,0,19.442c1.15,1.314,28.669,32.568,73.245,64.103
			c26.286,18.597,53.104,33.44,79.708,44.116c33.674,13.514,67.116,20.366,99.398,20.366c32.283,0,65.724-6.852,99.399-20.366
			c26.603-10.676,53.421-25.518,79.708-44.116c44.575-31.535,72.095-62.79,73.245-64.103
			C513.216,260.153,513.216,251.845,508.35,246.278z M255.999,364.766c-64.696,0-123.511-31.89-161.458-58.642
			c-27.395-19.312-48.214-38.839-59.411-50.12c28.164-28.325,117.29-108.771,220.869-108.771c64.696,0,123.511,31.89,161.459,58.641
			c27.392,19.31,48.212,38.836,59.412,50.12C448.704,284.319,359.578,364.766,255.999,364.766z"/>
	</g>
</g>
<g>
	<g>
		<path d="M282.752,184.106c-9.62,0-18.926,3.069-26.755,8.583c-7.829-5.514-17.135-8.583-26.754-8.583
			c-26.52,0-48.095,22.74-48.095,50.69c0,8.183,1.895,16.318,5.467,23.5c21.84,44.14,60.384,66.689,62.014,67.628
			c2.28,1.313,4.824,1.969,7.368,1.969c2.543,0,5.087-0.657,7.368-1.969c1.63-0.938,40.174-23.487,62-67.6
			c3.586-7.208,5.48-15.344,5.48-23.528C330.847,206.845,309.272,184.106,282.752,184.106z M298.905,245.196
			c-12.531,25.327-32.293,42.291-42.937,50.141c-10.61-7.786-30.256-24.635-42.89-50.167c-1.564-3.143-2.39-6.731-2.39-10.373
			c0-11.664,8.324-21.152,18.556-21.152c5.716,0,11.037,2.961,14.599,8.122c2.757,3.995,7.302,6.379,12.155,6.379
			c4.853,0,9.398-2.386,12.156-6.379c3.561-5.161,8.882-8.122,14.599-8.122c10.232,0,18.556,9.489,18.556,21.152
			C301.308,238.439,300.482,242.025,298.905,245.196z"/>
	</g>
</g>
<g>
</g>
<g>
</g>
<g>
</g>
<g>
</g>
<g>
</g>
<g>
</g>
<g>
</g>
<g>
</g>
<g>
</g>
<g>
</g>
<g>
</g>
<g>
</g>
<g>
</g>
<g>
</g>
<g>
</g>
</svg>
