<svg xmlns="http://www.w3.org/2000/svg" xmlns:xlink="http://www.w3.org/1999/xlink" width="132" height="83" viewBox="0 0 132 83">
  <defs>
    <clipPath id="clip-path">
      <rect id="Rectangle_16" data-name="Rectangle 16" width="132" height="83" transform="translate(891 1448)" fill="#6b6b00" stroke="#707070" stroke-width="1"/>
    </clipPath>
  </defs>
  <g id="Mask_Group_4" data-name="Mask Group 4" transform="translate(-891 -1448)" clip-path="url(#clip-path)">
    <g id="eye" transform="translate(891 1423.5)">
      <g id="Group_7" data-name="Group 7">
        <g id="Group_6" data-name="Group 6">
          <path id="Path_2" data-name="Path 2" d="M131.059,63.494a116.562,116.562,0,0,0-18.883-16.527,100.929,100.929,0,0,0-20.55-11.373A68.832,68.832,0,0,0,66,30.343a68.832,68.832,0,0,0-25.626,5.251,100.923,100.923,0,0,0-20.55,11.373A116.575,116.575,0,0,0,.941,63.494a3.808,3.808,0,0,0,0,5.012A116.561,116.561,0,0,0,19.824,85.032a100.937,100.937,0,0,0,20.55,11.374A68.832,68.832,0,0,0,66,101.657a68.833,68.833,0,0,0,25.626-5.251,100.938,100.938,0,0,0,20.55-11.374A116.589,116.589,0,0,0,131.06,68.506,3.809,3.809,0,0,0,131.059,63.494ZM66,94.041c-16.679,0-31.843-8.222-41.626-15.119A117.331,117.331,0,0,1,9.057,66C16.318,58.7,39.3,37.958,66,37.958c16.679,0,31.843,8.222,41.626,15.118A117.341,117.341,0,0,1,122.943,66C115.681,73.3,92.7,94.041,66,94.041Z" fill="#6b6b00"/>
        </g>
      </g>
      <g id="Group_9" data-name="Group 9">
        <g id="Group_8" data-name="Group 8">
          <path id="Path_3" data-name="Path 3" d="M72.9,47.465A11.983,11.983,0,0,0,66,49.678a11.983,11.983,0,0,0-6.9-2.213c-6.837,0-12.4,5.863-12.4,13.069a13.678,13.678,0,0,0,1.409,6.059A44.5,44.5,0,0,0,64.1,84.027a3.808,3.808,0,0,0,3.8,0A44.486,44.486,0,0,0,83.883,66.6,13.683,13.683,0,0,0,85.3,60.533C85.3,53.327,79.734,47.465,72.9,47.465Zm4.164,15.75a37.18,37.18,0,0,1-11.07,12.927A36.912,36.912,0,0,1,54.934,63.208a6.03,6.03,0,0,1-.616-2.674c0-3.007,2.146-5.453,4.784-5.453a4.582,4.582,0,0,1,3.764,2.094,3.808,3.808,0,0,0,6.268,0A4.581,4.581,0,0,1,72.9,55.08c2.638,0,4.784,2.446,4.784,5.453A6.043,6.043,0,0,1,77.061,63.215Z" fill="#6b6b00"/>
        </g>
      </g>
    </g>
  </g>
</svg>
