<svg id="_021---Lightweight-Fabric" data-name="021---Lightweight-Fabric" xmlns="http://www.w3.org/2000/svg" width="92.238" height="92.238" viewBox="0 0 92.238 92.238">
  <path id="Shape" d="M69.178,0A57.452,57.452,0,0,0,51.606,2.9a68.767,68.767,0,0,0-17.268,8.4A65.489,65.489,0,0,0,21.91,22.037a1.563,1.563,0,0,0-.341.649,135.976,135.976,0,0,0-2.921,15.47A7.025,7.025,0,0,1,16.91,33.82a1.537,1.537,0,0,0-2.352-1.3c-.535.335-12.956,8.432-8.467,33.368A62.45,62.45,0,0,0,0,90.7a1.537,1.537,0,0,0,2.5,1.2l7.686-6.149a1.537,1.537,0,0,0,.53-.827,67.068,67.068,0,0,1,4.351-11.688,20.735,20.735,0,0,0,3.107.244,47.7,47.7,0,0,0,14.6-2.844,1.537,1.537,0,0,0-.484-3,6.286,6.286,0,0,1-4.919-3.121,24.085,24.085,0,0,0,14.572-.014,1.537,1.537,0,0,0,.47-.226A185.283,185.283,0,0,0,62.579,47.205a1.537,1.537,0,0,0-1.087-2.624,20.861,20.861,0,0,1-8.672-2.232c4.346.4,10.3.246,14.2-2.687,4.736-3.553,10.529-9.862,17.218-18.755A70.661,70.661,0,0,0,92.127,6.721a1.537,1.537,0,0,0-.5-1.8C91.356,4.718,84.884,0,69.178,0ZM7.866,83.668l-4.58,3.665A60.373,60.373,0,0,1,9.07,66.79c5.334-10.68,27.1-35.9,46.651-45.046-10.655,7.6-30.439,24.185-43.261,49.82a69.515,69.515,0,0,0-4.593,12.1ZM81.784,19.062c-2.238,2.976-4.36,5.626-6.372,7.994a49.709,49.709,0,0,1-13.92,2.152,1.537,1.537,0,1,0,0,3.075,50.078,50.078,0,0,0,10.252-1.13A54.015,54.015,0,0,1,65.181,37.2c-5.484,4.115-17.036,1.3-17.153,1.276a1.537,1.537,0,0,0-1.6,2.414,18.309,18.309,0,0,0,11.634,6.421A187.646,187.646,0,0,1,40.829,61.622c-9.657,2.663-15.087-1.2-15.31-1.36A1.537,1.537,0,0,0,23.09,61.8a11.2,11.2,0,0,0,4.337,7.225,33.085,33.085,0,0,1-10.841,1.31A138.112,138.112,0,0,1,57.507,24.246a3.012,3.012,0,0,0,.87-4.038,3.042,3.042,0,0,0-3.983-1.239C35.639,27.743,16.262,49.435,8.558,61.528c-1.7-14.543,3.008-21.854,5.785-24.787a13.487,13.487,0,0,0,4.789,6.048,1.537,1.537,0,0,0,2.391-1.282c0-5.308,2.437-15.636,2.939-17.71a59.772,59.772,0,0,1,4.271-4.264,33.6,33.6,0,0,0-1.061,8.138,1.537,1.537,0,0,0,3.075,0,33.311,33.311,0,0,1,2.337-11.719,66.472,66.472,0,0,1,12.86-7.594,18.933,18.933,0,0,0-1.316,3.571,1.538,1.538,0,0,0,2.985.738A20.51,20.51,0,0,1,50.549,6.5,55.714,55.714,0,0,1,69.178,3.075C80.365,3.075,86.5,5.6,88.759,6.782a66.845,66.845,0,0,1-6.975,12.28Z" transform="translate(0)" fill="#6b6b00"/>
</svg>
