<svg xmlns="http://www.w3.org/2000/svg" xmlns:xlink="http://www.w3.org/1999/xlink" width="123" height="123" viewBox="0 0 123 123">
  <defs>
    <clipPath id="clip-path">
      <rect id="Rectangle_15" data-name="Rectangle 15" width="123" height="123" transform="translate(393 1446)" fill="#6b6b00"/>
    </clipPath>
  </defs>
  <g id="Mask_Group_3" data-name="Mask Group 3" transform="translate(-393 -1446)" clip-path="url(#clip-path)">
    <g id="Page-1" transform="translate(393 1446)">
      <g id="_006---Gems" data-name="006---Gems">
        <path id="Shape" d="M63.58,111.341a2.048,2.048,0,0,0,3.232,0l43.014-55.3a2.048,2.048,0,0,0,.223-2.157,1.708,1.708,0,0,0-.127-.19h.016L95.6,31.159a2.026,2.026,0,0,0-1.729-.9V30.2H36.52v.063a2.026,2.026,0,0,0-1.729.885L20.453,53.68h.016a1.711,1.711,0,0,0-.127.19,2.048,2.048,0,0,0,.223,2.157ZM68.928,34.3H90.14L79.534,50.964ZM75.8,52.731H54.59L65.2,36.064ZM50.858,50.964,40.252,34.3H61.464ZM26.371,56.828H49.287L61.421,101.89Zm42.678,44.966,6.593-23.869A2.048,2.048,0,0,0,71.7,76.833l-6.471,23.418L53.531,56.828H76.881l-2.528,9.727a2.048,2.048,0,1,0,3.963,1.024l2.8-10.751h22.9Zm35.429-49.063H83.266L93.872,36.064ZM36.52,36.064,47.126,52.731H25.914Z" transform="translate(-3.747 -5.621)" fill="#6b6b00"/>
        <path id="Shape-2" data-name="Shape" d="M2.048,77.08H8.193a2.048,2.048,0,0,0,0-4.1H2.048a2.048,2.048,0,0,0,0,4.1Z" transform="translate(0 -13.583)" fill="#6b6b00"/>
        <path id="Shape-3" data-name="Shape" d="M140.465,77.08h6.145a2.048,2.048,0,1,0,0-4.1h-6.145a2.048,2.048,0,0,0,0,4.1Z" transform="translate(-25.761 -13.583)" fill="#6b6b00"/>
        <path id="Shape-4" data-name="Shape" d="M77.08,146.61v-6.145a2.048,2.048,0,0,0-4.1,0v6.145a2.048,2.048,0,1,0,4.1,0Z" transform="translate(-13.583 -25.761)" fill="#6b6b00"/>
        <path id="Shape-5" data-name="Shape" d="M75.032,10.241A2.048,2.048,0,0,0,77.08,8.193V2.048a2.048,2.048,0,0,0-4.1,0V8.193A2.048,2.048,0,0,0,75.032,10.241Z" transform="translate(-13.583)" fill="#6b6b00"/>
        <path id="Shape-6" data-name="Shape" d="M26.307,119.858,21.963,124.2a2.048,2.048,0,1,0,2.894,2.894l4.344-4.344a2.048,2.048,0,0,0-2.9-2.9Z" transform="translate(-3.964 -22.2)" fill="#6b6b00"/>
        <path id="Shape-7" data-name="Shape" d="M121.3,29.8a2.048,2.048,0,0,0,1.448-.6l4.344-4.346a2.048,2.048,0,1,0-2.894-2.894l-4.344,4.344a2.048,2.048,0,0,0,1.448,3.5Z" transform="translate(-22.195 -3.964)" fill="#6b6b00"/>
        <path id="Shape-8" data-name="Shape" d="M125.651,127.7a2.048,2.048,0,0,0,1.448-3.5l-4.344-4.344a2.048,2.048,0,0,0-2.9,2.9L124.2,127.1a2.048,2.048,0,0,0,1.446.6Z" transform="translate(-22.2 -22.2)" fill="#6b6b00"/>
        <path id="Shape-9" data-name="Shape" d="M26.307,29.2a2.048,2.048,0,0,0,2.9-2.9l-4.346-4.344a2.048,2.048,0,1,0-2.894,2.894Z" transform="translate(-3.964 -3.964)" fill="#6b6b00"/>
      </g>
    </g>
  </g>
</svg>
