<svg height="512" viewBox="0 0 60 60" width="512" xmlns="http://www.w3.org/2000/svg"><g id="Page-1" fill="none" fill-rule="evenodd"><g id="006---Gems" fill="rgb(0,0,0)" fill-rule="nonzero"><path id="Shape" d="m29.211 51.614c.1894721.243319.480611.3856068.789.3856068s.5995279-.1422878.789-.3856068l21-27c.2343778-.3014088.2766699-.7099737.109-1.053-.0185663-.03235-.0392794-.0634196-.062-.093h.008l-7-11c-.1883177-.2801593-.5065239-.4449177-.844-.437v-.031h-28v.031c-.3365215-.0090282-.6545256.1537417-.844.432l-7 11h.008c-.02272061.0295804-.04343367.06065-.062.093-.16766994.3430263-.12537784.7515912.109 1.053zm2.611-37.614h10.356l-5.178 8.137zm3.356 9h-10.356l5.178-8.137zm-12.178-.863-5.178-8.137h10.356zm-11.955 2.863h11.188l5.924 22zm20.836 21.953 3.219-11.653c.1312647-.5262641-.1809278-1.0612309-.703687-1.2058239-.5227593-.144593-1.0654851.153907-1.223313.6728239l-3.159 11.433-5.709-21.2h11.4l-1.234 4.749c-.1050601.350945-.0098168.7312457.2482503.9912484s.6376456.358085.9893658.2556501c.3517203-.1024349.6192774-.3889887.6973839-.7468985l1.367-5.249h11.182zm17.297-23.953h-10.356l5.178-8.137zm-33.178-8.137 5.178 8.137h-10.356z"/><path id="Shape" d="m1 31h3c.55228475 0 1-.4477153 1-1s-.44771525-1-1-1h-3c-.55228475 0-1 .4477153-1 1s.44771525 1 1 1z"/><path id="Shape" d="m56 31h3c.5522847 0 1-.4477153 1-1s-.4477153-1-1-1h-3c-.5522847 0-1 .4477153-1 1s.4477153 1 1 1z"/><path id="Shape" d="m31 59v-3c0-.5522847-.4477153-1-1-1s-1 .4477153-1 1v3c0 .5522847.4477153 1 1 1s1-.4477153 1-1z"/><path id="Shape" d="m30 5c.5522847 0 1-.44771525 1-1v-3c0-.55228475-.4477153-1-1-1s-1 .44771525-1 1v3c0 .55228475.4477153 1 1 1z"/><path id="Shape" d="m10.908 47.678-2.121 2.122c-.27014567.2486399-.38231463.6253227-.2921953.9812426.09011932.3559199.36803283.6338334.72395272.7239527s.73260273-.0220496.98124258-.2921953l2.121-2.121c.3789722-.3923789.3735524-1.0160848-.0121814-1.4018186s-1.0094397-.3911536-1.4018186-.0121814z"/><path id="Shape" d="m48.385 12.615c.2651948-.0000566.5195073-.1054506.707-.293l2.121-2.122c.2701457-.24863985.3823146-.62532269.2921953-.98124258s-.3680328-.6338334-.7239527-.72395272c-.3559199-.09011933-.7326027.02204963-.9812426.2921953l-2.121 2.121c-.2859079.2859943-.3714219.7160366-.216678 1.0896546.1547439.3736179.5192821.6172591.923678.6173454z"/><path id="Shape" d="m50.506 51.506c.4043959-.0000863.7689341-.2437275.923678-.6173454.1547439-.373618.0692299-.8036603-.216678-1.0896546l-2.121-2.121c-.3923789-.3789722-1.0160848-.3735524-1.4018186.0121814s-.3911536 1.0094397-.0121814 1.4018186l2.122 2.121c.1872476.1873046.4411518.2926784.706.293z"/><path id="Shape" d="m10.908 12.322c.3923789.3789722 1.0160848.3735524 1.4018186-.0121814s.3911536-1.0094397.0121814-1.4018186l-2.122-2.121c-.24863985-.27014567-.62532269-.38231463-.98124258-.2921953-.35591989.09011932-.6338334.36803283-.72395272.72395272-.09011933.35591989.02204963.73260273.2921953.98124258z"/></g></g></svg>