<?xml version="1.0" encoding="iso-8859-1"?>
<!-- Generator: Adobe Illustrator 19.0.0, SVG Export Plug-In . SVG Version: 6.00 Build 0)  -->
<svg version="1.1" id="Layer_1" xmlns="http://www.w3.org/2000/svg" xmlns:xlink="http://www.w3.org/1999/xlink" x="0px" y="0px"
	 viewBox="0 0 496 496" style="enable-background:new 0 0 496 496;" xml:space="preserve">
<g>
	<g>
		<g>
			<path d="M363.28,0H132.688C60.768,0,0,60.768,0,132.688v230.608C0,435.232,60.768,496,132.688,496H363.28
				C435.216,496,496,435.232,496,363.28V132.688C496,60.768,435.216,0,363.28,0z M464,363.28
				c0,54.592-46.128,100.704-100.72,100.704H132.688C78.112,463.984,32,417.872,32,363.28V132.688C32,78.112,78.112,32,132.688,32
				H363.28C417.872,32,464,78.096,464,132.688V363.28z"/>
			<path d="M348.624,317.008c-5.072-2.816-11.248-2.688-16.192,0.32c-12.848,7.856-24.944,11.856-35.952,11.856
				c-6.384,0-12.592-1.728-15.28-3.392c-0.896-0.544-2.208-2.176-2.624-3.088c-0.144-1.248,0.08-5.328,0.272-8.624
				c0.288-4.896,0.624-10.896,0.624-18.176v-62.832h45.856c8.848,0,16-7.168,16-16v-46.4c0-8.832-7.152-16-16-16h-45.856V108.8
				c0-8.832-7.152-16-16-16h-42.656c-8.144,0-14.992,6.112-15.92,14.176c-1.328,11.92-4.88,19.168-8.992,27.552l-0.752,1.536
				c-2.512,5.2-7.024,9.12-12.704,14.096l-3.664,3.232c-5.792,5.168-14.976,9.264-27.296,12.208
				c-7.216,1.728-12.288,8.16-12.288,15.568v35.888c0,8.832,7.152,16,16,16h30.384v90c0,15.088,0.272,26.48,3.872,35.872
				c4.096,10.784,9.44,18.752,17.36,25.872c8.24,7.408,18.528,13.28,30.672,17.488c10.288,3.504,20.288,5.84,35.632,5.84
				c12.72,0,25.952-1.456,36.352-3.984c8.944-2.176,17.728-5.504,29.872-10.096l7.088-2.672c6.224-2.336,10.368-8.304,10.368-14.976
				v-45.424C356.8,325.184,353.664,319.84,348.624,317.008z M324.8,365.328c-9.456,3.568-16.592,6.176-22.928,7.728
				c-7.984,1.936-18.464,3.056-28.752,3.056c-11.024,0-17.616-1.504-25.232-4.096c-8-2.768-14.624-6.48-19.68-11.024
				c-4.016-3.616-6.576-7.504-8.848-13.456c-1.76-4.624-1.76-15.632-1.76-24.464v-106c0-8.832-7.152-16-16-16h-30.4h-0.016v-7.808
				c11.856-4,21.36-9.28,28.912-15.968l3.376-2.992c7.088-6.176,15.12-13.184,20.448-24.224l0.704-1.44
				c3.296-6.736,6.912-14.096,9.456-23.84h13.376v45.856c0,8.832,7.152,16,16,16h45.856v14.4h-45.856c-8.848,0-16,7.168-16,16
				v78.832c0,6.544-0.304,11.936-0.576,16.32c-0.464,8.288-0.832,14.288,1.248,20.112c3.088,8.704,9.04,16.256,16.224,20.672
				c12.176,7.584,27.68,8.176,32.128,8.176c9.264,0,18.72-1.648,28.32-4.928V365.328z"/>
		</g>
	</g>
</g>
<g>
</g>
<g>
</g>
<g>
</g>
<g>
</g>
<g>
</g>
<g>
</g>
<g>
</g>
<g>
</g>
<g>
</g>
<g>
</g>
<g>
</g>
<g>
</g>
<g>
</g>
<g>
</g>
<g>
</g>
</svg>
